<svg xmlns="http://www.w3.org/2000/svg" width="1em" height="1em" viewBox="0 0 256 256"><circle cx="128" cy="128" r="120" fill="#12B7F5"/><ellipse cx="128" cy="124" fill="#fff" rx="73" ry="82"/><circle cx="101" cy="105" r="10" fill="#1F2937"/><circle cx="155" cy="105" r="10" fill="#1F2937"/><path fill="#F59E0B" d="M128 120c-14 0-30 8-30 20c0 8 12 15 30 15s30-7 30-15c0-12-16-20-30-20Z"/><path fill="#EF4444" d="M85 157c11 24 28 36 43 36s32-12 43-36c-13 10-27 15-43 15s-30-5-43-15Z"/><path fill="#1F2937" d="M71 121c-10 2-17 10-17 20c0 13 11 23 24 23c3 0 6-1 9-2c-7-12-12-26-16-41Zm114 0c-4 15-9 29-16 41c3 1 6 2 9 2c13 0 24-10 24-23c0-10-7-18-17-20Z" opacity=".12"/></svg>
